<?xml version="1.0" encoding="UTF-8" standalone="no"?>
<!-- Generator: Adobe Illustrator 19.1.0, SVG Export Plug-In . SVG Version: 6.00 Build 0)  -->

<svg
   xmlns:dc="http://purl.org/dc/elements/1.1/"
   xmlns:cc="http://creativecommons.org/ns#"
   xmlns:rdf="http://www.w3.org/1999/02/22-rdf-syntax-ns#"
   xmlns:svg="http://www.w3.org/2000/svg"
   xmlns="http://www.w3.org/2000/svg"
   xmlns:sodipodi="http://sodipodi.sourceforge.net/DTD/sodipodi-0.dtd"
   xmlns:inkscape="http://www.inkscape.org/namespaces/inkscape"
   version="1.1"
   id="Capa_1"
   x="0px"
   y="0px"
   viewBox="0 0 38.455 38.455"
   style="enable-background:new 0 0 38.455 38.455;"
   xml:space="preserve"
   sodipodi:docname="icon.svg"
   inkscape:version="0.92.4 (5da689c313, 2019-01-14)"><metadata
   id="metadata48"><rdf:RDF><cc:Work
       rdf:about=""><dc:format>image/svg+xml</dc:format><dc:type
         rdf:resource="http://purl.org/dc/dcmitype/StillImage" /><dc:title /></cc:Work></rdf:RDF></metadata><defs
   id="defs46" /><sodipodi:namedview
   pagecolor="#ffffff"
   bordercolor="#666666"
   borderopacity="1"
   objecttolerance="10"
   gridtolerance="10"
   guidetolerance="10"
   inkscape:pageopacity="0"
   inkscape:pageshadow="2"
   inkscape:window-width="2160"
   inkscape:window-height="1350"
   id="namedview44"
   showgrid="false"
   inkscape:zoom="8.6790894"
   inkscape:cx="51.070519"
   inkscape:cy="13.046351"
   inkscape:window-x="-11"
   inkscape:window-y="-11"
   inkscape:window-maximized="1"
   inkscape:current-layer="Capa_1" />
<g
   id="Identity">
	
	<path
   d="M30.983,12.599H18.312c-0.221,0-0.4-0.18-0.4-0.4s0.18-0.4,0.4-0.4h12.671c0.221,0,0.4,0.18,0.4,0.4   S31.204,12.599,30.983,12.599z"
   id="path4" />
	<path
   d="M30.983,19.628H18.312c-0.221,0-0.4-0.18-0.4-0.4s0.18-0.4,0.4-0.4h12.671c0.221,0,0.4,0.18,0.4,0.4   S31.204,19.628,30.983,19.628z"
   id="path6" />
	<path
   d="M30.876,27.16H6.877c-0.221,0-0.4-0.18-0.4-0.4s0.18-0.4,0.4-0.4h23.999c0.221,0,0.4,0.18,0.4,0.4   S31.097,27.16,30.876,27.16z"
   id="path8" />
	
<path
   sodipodi:type="star"
   style="opacity:0.76000001;fill:#ffe02e;fill-opacity:1;fill-rule:nonzero;stroke:#000000;stroke-width:1;stroke-linecap:round;stroke-linejoin:round;stroke-miterlimit:4;stroke-dasharray:none;stroke-dashoffset:0;stroke-opacity:1;paint-order:markers fill stroke"
   id="path858"
   sodipodi:sides="5"
   sodipodi:cx="10.59142"
   sodipodi:cy="15.805657"
   sodipodi:r1="6.1077185"
   sodipodi:r2="2.6653044"
   sodipodi:arg1="0.80426385"
   sodipodi:arg2="1.4325824"
   inkscape:flatsided="false"
   inkscape:rounded="0"
   inkscape:randomized="0"
   d="m 14.827988,20.20517 -3.869357,-1.759625 -3.2422249,2.748852 0.4778065,-4.223732 -3.616217,-2.234096 4.1646584,-0.850784 1.0072795,-4.1296007 2.0960935,3.6979187 4.23875,-0.318137 -2.869201,3.136223 z"
   inkscape:transform-center-x="0.26003368"
   inkscape:transform-center-y="-0.33036651" /><rect
   style="opacity:0.76000001;fill:none;fill-opacity:1;fill-rule:nonzero;stroke:#000000;stroke-width:1;stroke-linecap:round;stroke-linejoin:round;stroke-miterlimit:4;stroke-dasharray:none;stroke-dashoffset:0;stroke-opacity:1;paint-order:markers fill stroke"
   id="rect832"
   width="37.314388"
   height="25.908245"
   x="0.48883477"
   y="5.5401273" /><path
   style="opacity:0.76000001;fill:none;fill-opacity:1;fill-rule:nonzero;stroke:#000000;stroke-width:1;stroke-linecap:round;stroke-linejoin:round;stroke-miterlimit:4;stroke-dasharray:none;stroke-dashoffset:0;stroke-opacity:1;paint-order:markers fill stroke"
   id="path844"
   sodipodi:type="arc"
   sodipodi:cx="5.0512934"
   sodipodi:cy="18.005413"
   sodipodi:rx="0.97766954"
   sodipodi:ry="0.73325217"
   sodipodi:start="0.1942726"
   sodipodi:end="0.16940637"
   sodipodi:open="true"
   d="M 6.0105713,18.146969 A 0.97766954,0.73325217 0 0 1 4.8685185,18.725738 0.97766954,0.73325217 0 0 1 4.089743,17.872812 0.97766954,0.73325217 0 0 1 5.2221133,17.28344 0.97766954,0.73325217 0 0 1 6.0149676,18.129037" /><path
   style="opacity:0.76000001;fill:none;fill-opacity:1;fill-rule:nonzero;stroke:#000000;stroke-width:1;stroke-linecap:round;stroke-linejoin:round;stroke-miterlimit:4;stroke-dasharray:none;stroke-dashoffset:0;stroke-opacity:1;paint-order:markers fill stroke"
   id="path844-7"
   sodipodi:type="arc"
   sodipodi:cx="6.0288458"
   sodipodi:cy="11.731915"
   sodipodi:rx="0.97766954"
   sodipodi:ry="0.73325217"
   sodipodi:start="0.1942726"
   sodipodi:end="0.16940637"
   sodipodi:open="true"
   d="M 6.9881238,11.873472 A 0.97766954,0.73325217 0 0 1 5.8460709,12.45224 0.97766954,0.73325217 0 0 1 5.0672954,11.599315 0.97766954,0.73325217 0 0 1 6.1996657,11.009942 0.97766954,0.73325217 0 0 1 6.99252,11.85554" /><path
   style="opacity:0.76000001;fill:none;fill-opacity:1;fill-rule:nonzero;stroke:#000000;stroke-width:1;stroke-linecap:round;stroke-linejoin:round;stroke-miterlimit:4;stroke-dasharray:none;stroke-dashoffset:0;stroke-opacity:1;paint-order:markers fill stroke"
   id="path844-9"
   sodipodi:type="arc"
   sodipodi:cx="4.725287"
   sodipodi:cy="8.6359606"
   sodipodi:rx="0.97766954"
   sodipodi:ry="0.73325217"
   sodipodi:start="0.1942726"
   sodipodi:end="0.16940637"
   sodipodi:open="true"
   d="M 5.6845649,8.777517 A 0.97766954,0.73325217 0 0 1 4.5425121,9.3562852 0.97766954,0.73325217 0 0 1 3.7637365,8.50336 0.97766954,0.73325217 0 0 1 4.8961069,7.9139874 0.97766954,0.73325217 0 0 1 5.6889612,8.7595849" /><text
   xml:space="preserve"
   style="font-style:normal;font-weight:normal;font-size:40px;line-height:1.25;font-family:sans-serif;letter-spacing:0px;word-spacing:0px;fill:#000000;fill-opacity:1;stroke:none"
   x="6.8436866"
   y="23.789959"
   id="text837"><tspan
     sodipodi:role="line"
     id="tspan835"
     x="6.8436866"
     y="60.283173" /></text>


</g>
<g
   id="g13">
</g>
<g
   id="g15">
</g>
<g
   id="g17">
</g>
<g
   id="g19">
</g>
<g
   id="g21">
</g>
<g
   id="g23">
</g>
<g
   id="g25">
</g>
<g
   id="g27">
</g>
<g
   id="g29">
</g>
<g
   id="g31">
</g>
<g
   id="g33">
</g>
<g
   id="g35">
</g>
<g
   id="g37">
</g>
<g
   id="g39">
</g>
<g
   id="g41">
</g>

<text
   xml:space="preserve"
   style="font-style:normal;font-weight:normal;font-size:40px;line-height:1.25;font-family:sans-serif;letter-spacing:0px;word-spacing:0px;fill:#000000;fill-opacity:1;stroke:none"
   x="225.51578"
   y="-10.428475"
   id="text845"><tspan
     sodipodi:role="line"
     id="tspan843"
     x="225.51578"
     y="26.064737" /></text>


<text
   xml:space="preserve"
   style="font-style:normal;font-weight:normal;font-size:20.01305771px;line-height:1.25;font-family:sans-serif;letter-spacing:0px;word-spacing:0px;fill:#000000;fill-opacity:1;stroke:none;stroke-width:0.99999994"
   x="54.866802"
   y="21.814327"
   id="text843"
   transform="scale(0.71357252,1.4013993)"><tspan
     sodipodi:role="line"
     id="tspan841"
     x="54.866802"
     y="21.814327"
     style="stroke-width:0.99999994">Resume</tspan></text>
</svg>